<svg xmlns="http://www.w3.org/2000/svg" xmlns:xlink="http://www.w3.org/1999/xlink" width="90px" height="31px" viewBox="0 0 90 31"><title>357BAE8B-87FC-4583-877D-FB909AA102B0@1x</title><defs><rect id="path-1" x="0" y="0" width="1824" height="70" rx="35"></rect><filter x="-1.7%" y="-32.1%" width="103.5%" height="190.0%" filterUnits="objectBoundingBox" id="filter-2"><feGaussianBlur stdDeviation="9"></feGaussianBlur></filter></defs><g id="Desktop" stroke="none" stroke-width="1" fill="none" fill-rule="evenodd"><g id="Home-page" transform="translate(-1758.000000, -43.000000)"><rect fill="#FFFFFF" x="0" y="0" width="1920" height="5260"></rect><g id="Menu" transform="translate(56.000000, 24.000000)"><g id="Combined-Shape"><use fill="black" fill-opacity="1" filter="url(#filter-2)" xlink:href="#path-1"></use><use fill="#FFFFFF" fill-rule="evenodd" xlink:href="#path-1"></use></g><g id="logo" transform="translate(1702.000000, 19.666667)"><path d="M52.581408,19.4259121 C52.4549535,18.0612371 52.377918,16.6790279 52.187025,15.3108921 C51.9551917,13.6492879 51.0244672,12.4574179 49.2882615,11.9666886 C48.3272557,11.6951379 47.3502615,11.4162043 46.3601857,11.3068457 C42.7651957,10.9102479 40.2513675,12.6013836 39.4017967,15.94974 C38.7656482,18.4569121 39.0374527,20.986925 39.306108,23.50794 C39.48828,25.2143029 40.5052455,26.3145793 42.1828267,26.8747536 C44.5944255,27.6804079 47.0050552,27.66172 49.421499,26.8685243 C51.083334,26.3233464 52.0208415,25.2341443 52.20156,23.5785386 C52.3512705,22.204635 52.4549535,20.8263479 52.581408,19.4259121 M42.381714,30.1195193 C38.0137042,29.1664386 35.8957125,26.5833614 35.7806437,21.8431057 C35.6866507,17.9714893 35.745033,14.0961814 35.7384922,10.2224886 C35.7336472,7.46106929 35.7588412,4.69918857 35.7162052,1.93823071 C35.701428,0.984919286 36.0042405,0.316309286 36.984384,0 L37.9536262,0 C39.0042645,0.373757143 39.1719015,1.17848857 39.1639072,2.12257143 C39.1406512,4.84430786 39.1556707,7.566275 39.1556707,10.3528421 C39.3102262,10.32308 39.4761675,10.3323086 39.5892982,10.2630943 C42.7928122,8.30502214 46.311009,8.24180643 49.8619095,8.88965214 C53.087226,9.47820429 54.9762915,11.5216407 55.6388452,14.5428443 C56.3132692,17.6171121 56.305275,20.7278329 55.7880712,23.8184814 C55.1691225,27.517985 52.8096075,29.6721643 48.9326385,30.2438743 C48.6605917,30.2840186 43.0001782,30.2544871 42.381714,30.1195193" id="Fill-1" fill="#1D1D1B"></path><path d="M65.6057612,20.4134385 C65.0885574,20.4722706 64.5715959,20.5931649 64.0754679,20.7470514 C62.5236144,21.2285521 61.6859139,22.3881221 61.6987532,23.9805121 C61.7111079,25.5239906 62.5669772,26.7896892 63.9603992,27.1943621 C66.1808627,27.8392085 68.4224019,27.7926042 70.6431077,27.1941314 C71.9108019,26.8526742 72.8085804,26.0440206 72.9704034,24.7935492 C73.1220519,23.6226742 73.0920129,22.4167306 73.0021382,21.2357042 C72.9369729,20.3827535 72.3504857,19.9944614 71.3868152,20.1160478 C70.3555569,20.2464014 66.4863399,20.3135392 65.6057612,20.4134385 M62.2132922,29.4985056 C59.4574562,28.6273285 58.0637919,26.4486935 58.2207699,23.4738635 C58.3603059,20.8296471 60.0572672,18.6507814 62.8092272,18.2726406 C65.5432607,17.8970378 68.3456087,17.8887321 71.1181599,17.8871171 C72.5513109,17.8864249 72.8686584,17.7715292 73.0949199,16.4020092 C73.6966689,12.7629528 71.2048854,11.4368071 68.5750194,11.3645935 C66.4533939,11.3064535 64.3196559,11.5489342 62.1956079,11.7088192 C61.4889647,11.7618835 60.7961297,11.9542992 60.5165732,11.0771235 C60.1861442,10.0405242 60.5422517,9.13197136 61.5214262,8.94924564 C62.9400422,8.68438564 64.4000829,8.4236785 65.8322649,8.46705279 C67.9163417,8.52980707 70.0200407,8.72822136 72.0626927,9.11858993 C74.5503579,9.59432279 76.2347222,11.3858192 76.3834637,13.9119099 C76.5927677,17.4725235 76.5687849,21.0502099 76.5082224,24.6184371 C76.4714004,26.7878435 75.1935317,28.3350135 73.0895904,29.0846042 C71.4439862,29.6706185 63.5415489,29.9184056 62.2132922,29.4985056" id="Fill-4" fill="#1D1D1B"></path><path d="M79.9467189,14.970081 C80.1802479,10.3186503 84.5673954,7.36804529 89.3007182,8.57098957 C90.4460762,8.862151 90.7094019,9.57944171 90.6047499,10.5712824 C90.4879854,11.6794031 89.6832309,11.6542553 88.8285729,11.5815803 C88.4678627,11.551126 88.1032764,11.5476653 87.7406282,11.5499724 C84.7321254,11.5681989 83.2931604,12.9275674 83.2825014,15.8027289 C83.2677242,19.7574024 83.2754762,23.7123067 83.2793522,27.667211 C83.2808057,29.2879789 82.9983422,29.6125939 81.5303072,29.627821 C80.1114489,29.6425867 79.8631427,29.3664217 79.8612047,27.7541903 C79.8590244,25.680761 79.8607202,23.6073317 79.8607202,21.5339024 C79.8832494,21.5339024 79.8372219,17.1533303 79.9467189,14.970081 Z" id="Fill-6" fill="#1D1D1B"></path><path d="M22.5160754,18.0983129 C22.5160754,18.1008508 22.5160754,18.1033886 22.5160754,18.1056958 C24.0892469,18.1056958 25.6624184,18.1186158 27.2355899,18.1017736 C28.4979546,18.0883922 29.1614774,17.6364229 29.0042571,16.4540122 C28.8501861,15.2951344 28.4514426,14.0183615 27.7266306,13.1049636 C25.9964811,10.9249444 23.3678264,10.9505536 20.8690176,11.3102372 C17.9179281,11.7352129 16.5492156,13.1626422 16.0981461,15.7584086 C15.8285219,17.3099622 16.5225681,18.0980822 18.1596936,18.0983129 C19.6119824,18.0985436 21.0640289,18.0983129 22.5160754,18.0983129 M24.0877934,20.4393708 C22.2711606,20.4393708 20.4499251,20.5182751 18.6398331,20.4179144 C16.6856024,20.3099401 16.0828844,20.9658608 16.2255696,23.0612079 C16.3781871,25.3014436 18.5763636,27.0730986 21.0276914,27.3432651 C23.8353689,27.6524222 26.5703714,27.3919458 29.2864784,26.7397165 C30.1290239,26.5373801 30.8984099,26.4543229 31.2019491,27.5056879 C31.4371739,28.3212629 30.9410459,29.1629086 29.9635671,29.4236158 C26.4511844,30.3607772 22.8753321,30.4583694 19.3256429,29.7929894 C15.4651469,29.0692386 13.5072824,26.9812744 13.1724929,22.9746901 C12.9474426,20.2827158 13.0533059,17.5330629 13.3461861,14.8422422 C13.6986599,11.6046286 16.0494539,9.35724079 19.4627564,8.93503364 C21.5107379,8.68170936 23.6626446,8.63672007 25.6956066,8.93872507 C30.3528629,9.63063721 33.4989636,15.1380179 31.8671676,19.3517836 C31.5733184,20.1108336 31.1215221,20.4605965 30.2634726,20.4485994 C28.2053166,20.4197601 26.1464339,20.4391401 24.0877934,20.4393708" id="Fill-8" fill="#6EA74B"></path><path d="M7.35500448,8.4094665 C7.85864223,8.49944507 8.61930723,8.59380721 9.35526273,8.77745579 C10.3482455,9.02524293 10.478576,9.81267079 10.389428,10.6067894 C10.2990687,11.4138279 9.63021648,11.4401294 8.93592798,11.4562794 C8.05631823,11.4768129 7.17428598,11.5610236 6.30242823,11.6782265 C4.42862448,11.9301665 3.33656148,12.9773786 3.21713223,14.8085579 C3.07759623,16.9491251 3.05288673,19.0977672 3.02115198,21.2436408 C2.98602573,23.6232279 2.99111298,26.0037379 2.99523123,28.3835558 C2.99692698,29.4316908 2.50782423,29.9095001 1.37724348,29.9125128 C0.177136976,29.9159601 0,29.2510415 0.00223247572,28.3371822 C0.0131337257,23.8841658 -0.0149672743,19.4309186 0.0124069757,14.9781329 C0.0351784757,11.2804751 3.22561098,8.34925007 7.35500448,8.4094665" id="Fill-10" fill="#6EA74B"></path></g></g></g></g></svg>